<svg width="186" height="30" viewBox="0 0 186 30" fill="none" xmlns="http://www.w3.org/2000/svg">
<path d="M15.582 29.21C15.19 29.154 14.84 29.098 14.532 29.042C14.252 29.014 14.014 29 13.818 29C13.398 29 13.034 29.028 12.726 29.084C12.446 29.14 12.208 29.182 12.012 29.21C10.948 26.242 9.74398 23.008 8.39998 19.508C7.05598 15.98 5.80998 12.788 4.66198 9.932C3.84998 7.916 2.54798 4.738 0.755981 0.397995C1.28798 0.397995 1.98798 0.439995 2.85598 0.523996C3.75198 0.579995 4.28398 0.607995 4.45198 0.607995C4.98398 0.607995 5.68398 0.579995 6.55198 0.523996C7.44798 0.439995 7.97998 0.397995 8.14798 0.397995C9.01598 3.31 10.192 6.768 11.676 10.772C12.964 14.244 14.266 17.716 15.582 21.188C16.842 18.164 17.78 15.868 18.396 14.3C19.32 12.004 20.202 9.694 21.042 7.37C21.77 5.354 22.568 3.03 23.436 0.397995L25.368 0.523996L27.3 0.397995C25.928 3.562 24.556 6.768 23.184 10.016C21.812 13.236 20.51 16.386 19.278 19.466C17.962 22.77 16.73 26.018 15.582 29.21Z" fill="#F2DCC2"/>
<path d="M35.6997 17.03H41.9157C41.9157 15.294 41.7757 13.908 41.4957 12.872C41.0477 11.192 40.2637 10.352 39.1437 10.352C37.7997 10.352 36.8477 11.178 36.2877 12.83C35.8957 13.978 35.6997 15.378 35.6997 17.03ZM47.7117 19.046H35.6997C35.6997 21.482 36.1057 23.33 36.9177 24.59C37.8697 26.102 39.4097 26.858 41.5377 26.858C42.4057 26.858 43.2597 26.69 44.0997 26.354C44.9397 26.018 45.7237 25.556 46.4517 24.968L46.9557 25.346L46.0317 27.698C44.2397 28.958 42.2377 29.588 40.0257 29.588C36.5817 29.588 33.9637 28.622 32.1717 26.69C30.3797 24.758 29.4837 22.042 29.4837 18.542C29.4837 15.546 30.3377 13.124 32.0457 11.276C33.7817 9.4 36.1337 8.462 39.1017 8.462C42.2097 8.462 44.4637 9.47 45.8637 11.486C47.0957 13.25 47.7117 15.77 47.7117 19.046Z" fill="#F2DCC2"/>
<path d="M51.8277 29.21V8.84C52.3037 8.896 52.8357 8.952 53.4237 9.008C54.0397 9.036 54.4737 9.05 54.7257 9.05C55.3417 9.05 55.9017 9.022 56.4057 8.966C56.9097 8.91 57.3157 8.868 57.6237 8.84V14.048C58.1277 12.312 58.8557 10.996 59.8077 10.1C60.9837 9.008 62.5377 8.462 64.4697 8.462C64.3857 9.19 64.3297 10.1 64.3017 11.192C64.2737 12.256 64.2597 13.25 64.2597 14.174L63.8817 14.51C63.6297 14.314 63.3077 14.174 62.9157 14.09C62.5237 14.006 62.1317 13.964 61.7397 13.964C60.7877 13.964 59.9617 14.216 59.2617 14.72C58.5897 15.196 58.1277 15.868 57.8757 16.736C57.7637 17.044 57.6937 17.464 57.6657 17.996C57.6377 18.5 57.6237 19.102 57.6237 19.802V29.21C57.1477 29.154 56.7977 29.126 56.5737 29.126C55.5937 29.042 54.9777 29 54.7257 29C54.1097 29 53.5497 29.028 53.0457 29.084C52.5417 29.14 52.1357 29.182 51.8277 29.21Z" fill="#F2DCC2"/>
<path d="M67.6479 29.21V8.84C68.0959 8.896 68.5999 8.952 69.1599 9.008C69.7479 9.036 70.1819 9.05 70.4619 9.05C71.0779 9.05 71.6099 9.022 72.0579 8.966C72.5339 8.91 72.9259 8.868 73.2339 8.84V11.948C74.1579 10.884 75.1099 10.058 76.0899 9.47C77.2379 8.798 78.4419 8.462 79.7019 8.462C82.1939 8.462 83.9579 9.232 84.9939 10.772C85.8899 12.088 86.3379 14.132 86.3379 16.904V29.21C85.8619 29.154 85.5119 29.126 85.2879 29.126C84.3079 29.042 83.6919 29 83.4399 29C82.8239 29 82.2639 29.028 81.7599 29.084C81.2559 29.14 80.8499 29.182 80.5419 29.21V18.752C80.5419 16.484 80.3459 14.874 79.9539 13.922C79.4219 12.634 78.4699 11.99 77.0979 11.99C75.5019 11.99 74.4379 12.914 73.9059 14.762C73.5979 15.826 73.4439 17.422 73.4439 19.55V29.21C72.9679 29.154 72.6179 29.126 72.3939 29.126C71.4139 29.042 70.7979 29 70.5459 29C69.9299 29 69.3699 29.028 68.8659 29.084C68.3619 29.14 67.9559 29.182 67.6479 29.21Z" fill="#F2DCC2"/>
<path d="M101.066 22.28V18.206C100.226 18.514 99.5538 18.752 99.0498 18.92C98.1258 19.256 97.4118 19.634 96.9078 20.054C96.4038 20.446 96.0538 20.922 95.8578 21.482C95.6618 22.042 95.5638 22.714 95.5638 23.498C95.5638 24.45 95.7318 25.248 96.0678 25.892C96.4318 26.536 97.0338 26.858 97.8738 26.858C99.0498 26.858 99.9038 26.368 100.436 25.388C100.856 24.604 101.066 23.568 101.066 22.28ZM106.862 14.09V25.514C106.862 26.298 107.002 26.83 107.282 27.11C107.59 27.362 108.164 27.488 109.004 27.488V28.454C108.472 28.706 107.828 28.958 107.072 29.21C106.344 29.462 105.728 29.588 105.224 29.588C104.272 29.588 103.418 29.322 102.662 28.79C101.934 28.23 101.402 27.474 101.066 26.522C100.506 27.502 99.7498 28.258 98.7978 28.79C97.8458 29.322 96.8098 29.588 95.6898 29.588C93.8978 29.588 92.4698 29.126 91.4058 28.202C90.2578 27.194 89.6838 25.808 89.6838 24.044C89.6838 22.14 90.2998 20.726 91.5318 19.802C92.5398 19.046 94.4858 18.318 97.3698 17.618C98.0138 17.45 98.5318 17.31 98.9238 17.198C99.5398 17.002 100.044 16.778 100.436 16.526C100.66 16.302 100.814 16.064 100.898 15.812C101.01 15.56 101.066 15.252 101.066 14.888C101.066 13.908 100.646 13.054 99.8058 12.326C98.9938 11.57 98.0838 11.192 97.0758 11.192C95.8718 11.192 94.7098 11.528 93.5898 12.2C92.6658 12.76 92.1198 13.292 91.9518 13.796H91.6578L91.1118 11.276C92.0638 10.38 93.2398 9.694 94.6398 9.218C96.0678 8.714 97.4818 8.462 98.8818 8.462C100.982 8.462 102.746 8.868 104.174 9.68C105.966 10.688 106.862 12.158 106.862 14.09Z" fill="#F2DCC2"/>
<path d="M131.025 0.397995V25.976C132.817 25.976 134.343 25.934 135.603 25.85C136.891 25.766 138.571 25.612 140.643 25.388C140.587 25.696 140.531 26.018 140.475 26.354C140.447 26.69 140.433 26.97 140.433 27.194C140.433 27.39 140.461 27.684 140.517 28.076C140.573 28.468 140.615 28.776 140.643 29H124.725V0.397995C125.201 0.397995 125.817 0.439995 126.573 0.523996C127.329 0.579995 127.763 0.607995 127.875 0.607995C128.351 0.607995 128.743 0.593995 129.051 0.565995C130.255 0.453995 130.913 0.397995 131.025 0.397995Z" fill="#F2DCC2"/>
<path d="M163.197 8.84V29.21C162.581 29.154 162.035 29.098 161.559 29.042C161.111 29.014 160.733 29 160.425 29C159.781 29 159.221 29.028 158.745 29.084C158.297 29.14 157.919 29.182 157.611 29.21V26.144C156.435 27.404 155.497 28.244 154.797 28.664C153.789 29.28 152.599 29.588 151.227 29.588C150.051 29.588 148.973 29.392 147.993 29C147.041 28.58 146.243 27.908 145.599 26.984C145.179 26.396 144.885 25.682 144.717 24.842C144.577 24.002 144.507 23.092 144.507 22.112V8.84C144.983 8.896 145.515 8.952 146.103 9.008C146.719 9.036 147.153 9.05 147.405 9.05C148.021 9.05 148.581 9.022 149.085 8.966C149.589 8.91 149.995 8.868 150.303 8.84V20.432C150.303 21.328 150.317 22.028 150.345 22.532C150.401 23.008 150.541 23.47 150.765 23.918C151.045 24.618 151.423 25.164 151.899 25.556C152.403 25.92 153.019 26.102 153.747 26.102C155.343 26.102 156.407 25.388 156.939 23.96C157.247 23.12 157.401 21.734 157.401 19.802V8.84C157.877 8.896 158.409 8.952 158.997 9.008C159.613 9.036 160.047 9.05 160.299 9.05C160.915 9.05 161.475 9.022 161.979 8.966C162.483 8.91 162.889 8.868 163.197 8.84Z" fill="#F2DCC2"/>
<path d="M178.807 29.21L174.775 21.902C174.411 22.462 173.641 23.638 172.465 25.43C171.429 27.026 170.645 28.258 170.113 29.126L168.433 29L166.753 29.126L173.431 19.844C172.283 17.8 170.967 15.546 169.483 13.082C169.399 12.942 168.545 11.528 166.921 8.84C167.397 8.84 168.041 8.882 168.853 8.966C169.665 9.022 170.155 9.05 170.323 9.05C170.827 9.05 171.485 9.022 172.297 8.966C173.109 8.882 173.599 8.84 173.767 8.84C174.355 9.932 174.957 11.066 175.573 12.242C176.217 13.39 176.819 14.454 177.379 15.434C178.079 14.426 178.821 13.348 179.605 12.2C180.249 11.248 180.963 10.128 181.747 8.84L183.637 8.966L185.527 8.84C184.295 10.324 183.105 11.794 181.957 13.25C180.949 14.538 179.857 15.952 178.681 17.492L180.991 21.44C182.531 24.044 184.085 26.634 185.653 29.21C185.177 29.21 184.533 29.168 183.721 29.084C182.909 29.028 182.405 29 182.209 29C181.733 29 181.089 29.028 180.277 29.084C179.465 29.168 178.975 29.21 178.807 29.21Z" fill="#F2DCC2"/>
</svg>
